<?xml version="1.0" encoding="utf-8"?>
<!-- Generator: Adobe Illustrator 21.1.0, SVG Export Plug-In . SVG Version: 6.00 Build 0)  -->
<svg version="1.1" id="Icons" xmlns="http://www.w3.org/2000/svg" xmlns:xlink="http://www.w3.org/1999/xlink" x="0px" y="0px"
	 viewBox="0 0 48 48" style="enable-background:new 0 0 48 48;" xml:space="preserve">
<style type="text/css">
	.st0{opacity:0.15;fill:#45413C;}
	.st1{fill:#FFE500;}
	.st2{fill:#EBCB00;}
	.st3{fill:none;stroke:#45413C;stroke-linecap:round;stroke-linejoin:round;stroke-miterlimit:10;}
	.st4{fill:#FFAA54;}
	.st5{fill:#FF8A14;}
	.st6{fill:#FFB0CA;stroke:#45413C;stroke-linecap:round;stroke-linejoin:round;stroke-miterlimit:10;}
	.st7{fill:#FF87AF;stroke:#45413C;stroke-linecap:round;stroke-linejoin:round;stroke-miterlimit:10;}
	.st8{fill:#FFCC99;}
	.st9{fill:#FFFFFF;}
	.st10{fill:#F0F0F0;}
	.st11{fill:#BF8256;}
	.st12{fill:#915E3A;}
	.st13{fill:#DEA47A;}
	.st14{fill:#F0D5A8;}
	.st15{fill:#DEBB7E;}
	.st16{fill:#F7E5C6;}
	.st17{fill:#FF8A14;stroke:#45413C;stroke-linecap:round;stroke-linejoin:round;stroke-miterlimit:10;}
	.st18{fill:#FFF5E3;}
	.st19{fill:#FFF48C;}
	.st20{fill:#FFFACF;}
	.st21{fill:#FFFCE5;}
	.st22{fill:#FF87AF;}
	.st23{fill:#FFB0CA;}
	.st24{fill:#FFE500;stroke:#45413C;stroke-linecap:round;stroke-linejoin:round;stroke-miterlimit:10;}
	.st25{fill:#9CEB60;stroke:#45413C;stroke-linecap:round;stroke-linejoin:round;stroke-miterlimit:10;}
	.st26{fill:#FFFACF;stroke:#45413C;stroke-linecap:round;stroke-linejoin:round;stroke-miterlimit:10;}
	.st27{fill:#00F5BC;stroke:#45413C;stroke-linecap:round;stroke-linejoin:round;stroke-miterlimit:10;}
	.st28{fill:#BF8256;stroke:#45413C;stroke-linecap:round;stroke-linejoin:round;stroke-miterlimit:10;}
	.st29{fill:#FFE3CF;stroke:#45413C;stroke-linecap:round;stroke-linejoin:round;stroke-miterlimit:10;}
	.st30{fill:#FF6242;}
	.st31{fill:#FF866E;}
	.st32{fill:none;stroke:#E04122;stroke-linecap:round;stroke-linejoin:round;stroke-miterlimit:10;}
	.st33{fill:#FFFEF2;stroke:#45413C;stroke-linecap:round;stroke-linejoin:round;stroke-miterlimit:10;}
	.st34{fill:#FF6242;stroke:#45413C;stroke-linecap:round;stroke-linejoin:round;stroke-miterlimit:10;}
	.st35{fill:#FFA694;}
	.st36{fill:#FFFFFF;stroke:#45413C;stroke-linecap:round;stroke-linejoin:round;stroke-miterlimit:10;}
	.st37{fill:#FFFEF2;}
	.st38{fill:#FF6196;}
	.st39{fill:#B89558;}
	.st40{fill:none;stroke:#915E3A;stroke-linecap:round;stroke-linejoin:round;stroke-miterlimit:10;}
	.st41{fill:#DEBB7E;stroke:#45413C;stroke-linecap:round;stroke-linejoin:round;stroke-miterlimit:10;}
	.st42{fill:#6DD627;stroke:#45413C;stroke-linecap:round;stroke-linejoin:round;stroke-miterlimit:10;}
	.st43{fill:#E5F8FF;}
	.st44{fill:#E8F4FA;}
	.st45{fill:#E8F4FA;stroke:#45413C;stroke-linecap:round;stroke-linejoin:round;stroke-miterlimit:10;}
	.st46{fill:#FFCCDD;}
	.st47{fill:#E5F8FF;stroke:#45413C;stroke-linecap:round;stroke-linejoin:round;stroke-miterlimit:10;}
	.st48{fill:#00B8F0;stroke:#45413C;stroke-linecap:round;stroke-linejoin:round;stroke-miterlimit:10;}
	.st49{fill:#00B8F0;}
	.st50{fill:#4ACFFF;}
	.st51{fill:#E04122;}
	.st52{fill:#E04122;stroke:#45413C;stroke-linecap:round;stroke-linejoin:round;stroke-miterlimit:10;}
	.st53{fill:#87898C;}
	.st54{fill:#BDBEC0;}
	.st55{fill:#656769;}
	.st56{fill:#525252;}
	.st57{fill:#FFF48C;stroke:#45413C;stroke-linecap:round;stroke-linejoin:round;stroke-miterlimit:10;}
	.st58{fill:#6DD627;}
	.st59{fill:#EB6D00;}
	.st60{fill:#46B000;}
	.st61{fill:#80DDFF;}
	.st62{fill:#DAEDF7;}
	.st63{fill:#BF8DF2;stroke:#45413C;stroke-linecap:round;stroke-linejoin:round;stroke-miterlimit:10;}
	.st64{fill:#9F5AE5;stroke:#45413C;stroke-linecap:round;stroke-linejoin:round;stroke-miterlimit:10;}
	.st65{fill:#C8FFA1;}
	.st66{fill:#E4FFD1;}
	.st67{fill:#9CEB60;}
	.st68{fill:#E5FEFF;}
	.st69{fill:#B8ECFF;}
	.st70{fill:#E0E0E0;stroke:#45413C;stroke-linecap:round;stroke-linejoin:round;stroke-miterlimit:10;}
	.st71{fill:#E0E0E0;}
	.st72{fill:none;stroke:#4F4B45;stroke-linejoin:round;stroke-miterlimit:10;}
	.st73{fill:none;stroke:#4F4B45;stroke-linecap:round;stroke-linejoin:round;stroke-miterlimit:10;}
	.st74{fill:#E0366F;stroke:#45413C;stroke-linecap:round;stroke-linejoin:round;stroke-miterlimit:10;}
	.st75{fill:none;stroke:#45413C;stroke-miterlimit:10;}
	.st76{fill:#FF866E;stroke:#45413C;stroke-linecap:round;stroke-linejoin:round;stroke-miterlimit:10;}
	.st77{fill:#45413C;stroke:#45413C;stroke-linecap:round;stroke-linejoin:round;stroke-miterlimit:10;}
	.st78{fill:#9F5AE5;}
	.st79{fill:#803EC2;}
	.st80{fill:#803EC2;stroke:#45413C;stroke-linecap:round;stroke-linejoin:round;stroke-miterlimit:10;}
	.st81{fill:#BF8DF2;}
	.st82{fill:#FFAA54;stroke:#45413C;stroke-linecap:round;stroke-linejoin:round;stroke-miterlimit:10;}
	.st83{fill:none;stroke:#45413C;stroke-linejoin:round;stroke-miterlimit:10;}
	.st84{fill:#FFCCDD;stroke:#45413C;stroke-linecap:round;stroke-linejoin:round;stroke-miterlimit:10;}
	.st85{fill:#FF6196;stroke:#45413C;stroke-linecap:round;stroke-linejoin:round;stroke-miterlimit:10;}
	.st86{fill:#FFE5EE;}
	.st87{fill:#F7E5C6;stroke:#45413C;stroke-linecap:round;stroke-linejoin:round;stroke-miterlimit:10;}
	.st88{fill:#E5FFF9;}
	.st89{fill:none;stroke:#45413C;stroke-width:1.0064;stroke-linecap:round;stroke-linejoin:round;stroke-miterlimit:10;}
	.st90{fill:#4AEFF7;}
	.st91{fill:#A6FBFF;}
	.st92{fill:#E5FEFF;stroke:#45413C;stroke-linecap:round;stroke-linejoin:round;stroke-miterlimit:10;}
	.st93{fill:#46B000;stroke:#45413C;stroke-linecap:round;stroke-linejoin:round;stroke-miterlimit:10;}
	.st94{fill:#FFFFFF;stroke:#45413C;stroke-linejoin:round;stroke-miterlimit:10;}
	.st95{fill:#FFFFFF;stroke:#45413C;stroke-miterlimit:10;}
	.st96{fill:#009FD9;}
	.st97{fill:#00DFEB;}
	.st98{fill:#C0DCEB;stroke:#45413C;stroke-linecap:round;stroke-linejoin:round;stroke-miterlimit:10;}
	.st99{fill:#00DFEB;stroke:#45413C;stroke-linecap:round;stroke-linejoin:round;stroke-miterlimit:10;}
	.st100{fill:#FFE5EE;stroke:#45413C;stroke-linecap:round;stroke-linejoin:round;stroke-miterlimit:10;}
	.st101{fill:#8CA4B8;}
	.st102{fill:#ADC4D9;}
	.st103{fill:#656769;stroke:#45413C;stroke-linecap:round;stroke-linejoin:round;stroke-miterlimit:10;}
	.st104{fill:#F0F0F0;stroke:#45413C;stroke-linecap:round;stroke-linejoin:round;stroke-miterlimit:10;}
	.st105{fill:#C0DCEB;}
	.st106{fill:#45413C;}
	.st107{fill:#FFCABF;}
	.st108{fill:#87898C;stroke:#45413C;stroke-linecap:round;stroke-linejoin:round;stroke-miterlimit:10;}
	.st109{fill:#EBCB00;stroke:#45413C;stroke-linecap:round;stroke-linejoin:round;stroke-miterlimit:10;}
</style>
<g id="XMLID_13609_">
	<ellipse id="XMLID_13624_" class="st0" cx="24" cy="45.5" rx="11.5" ry="1.5"/>
	<g id="XMLID_13610_">
		<path id="XMLID_13623_" class="st1" d="M40.6,11.4C35.6,8.9,30,7.5,24,7.5S12.4,8.9,7.4,11.4L9.6,16c1.2,2.5,1.9,5.2,1.9,8v4.4
			c0,1,0.7,1.9,1.7,2.1c1.3,0.2,2.3-0.8,2.3-2v-0.7l7.6,15.4c0.4,0.7,1.4,0.7,1.8,0c0.6-1.2,1.5-3.1,2.6-5.3V40
			c0,0.8,0.7,1.5,1.5,1.5s1.5-0.7,1.5-1.5v-5.8c0-1.5,0.4-3.1,1-4.4c1.3-2.6,2.6-5.3,4-8v2.7c0,0.8,0.7,1.5,1.5,1.5s1.5-0.7,1.5-1.5
			V18c0-1.5,0.4-3.1,1-4.4C39.9,12.9,40.3,12.1,40.6,11.4z"/>
		<path id="XMLID_13622_" class="st2" d="M24,10.7c5.5,0,10.7,1.2,15.3,3.3c0.1-0.1,0.1-0.3,0.2-0.4c0.4-0.7,0.7-1.5,1.1-2.2
			C35.6,8.9,30,7.5,24,7.5S12.4,8.9,7.4,11.4L8.7,14C13.4,11.9,18.5,10.7,24,10.7z"/>
		<path id="XMLID_13621_" class="st34" d="M30.5,22.5c-2.5,0-4.5,2-4.5,4.5s2,4.5,4.5,4.5c0.1,0,0.1,0,0.2,0
			c1.1-2.2,2.3-4.6,3.5-7.1C33.4,23.3,32,22.5,30.5,22.5z"/>
		<path id="XMLID_13620_" class="st34" d="M23.5,33c0-2.5-2-4.5-4.5-4.5c-1,0-2,0.4-2.7,0.9l3.9,7.9C22.1,36.8,23.5,35.1,23.5,33z"
			/>
		<circle id="XMLID_13619_" class="st34" cx="30.5" cy="14.5" r="4.5"/>
		<path id="XMLID_13618_" class="st14" d="M24,7.5c6,0,11.6,1.4,16.6,3.9c0,0,2.5,0.3,2.9-1.9c1-5.5-15.3-7-19.5-7S3.5,4,4.5,9.5
			c0.4,2.2,2.9,1.9,2.9,1.9C12.4,8.9,18,7.5,24,7.5z"/>
		<path id="XMLID_13617_" class="st16" d="M4.5,9.7C8.2,6.1,20.4,5,24,5s15.8,1.1,19.5,4.7c0-0.1,0-0.1,0-0.2c1-5.5-15.3-7-19.5-7
			S3.5,4,4.5,9.5C4.5,9.6,4.5,9.6,4.5,9.7z"/>
		<path id="XMLID_13616_" class="st3" d="M24,7.5c6,0,11.6,1.4,16.6,3.9c0,0,2.5,0.3,2.9-1.9c1-5.5-15.3-7-19.5-7S3.5,4,4.5,9.5
			c0.4,2.2,2.9,1.9,2.9,1.9C12.4,8.9,18,7.5,24,7.5z"/>
		<circle id="XMLID_13615_" class="st34" cx="17" cy="17" r="4.5"/>
		<line id="XMLID_13614_" class="st3" x1="15.5" y1="27.8" x2="15.5" y2="25.5"/>
		<path id="XMLID_13613_" class="st3" d="M40.6,11.4C35.6,8.9,30,7.5,24,7.5S12.4,8.9,7.4,11.4L9.6,16c1.2,2.5,1.9,5.2,1.9,8v4.4
			c0,1,0.7,1.9,1.7,2.1c1.3,0.2,2.3-0.8,2.3-2v-0.7l7.6,15.4c0.4,0.7,1.4,0.7,1.8,0c0.6-1.2,1.5-3.1,2.6-5.3V40
			c0,0.8,0.7,1.5,1.5,1.5s1.5-0.7,1.5-1.5v-5.8c0-1.5,0.4-3.1,1-4.4c1.3-2.6,2.6-5.3,4-8v2.7c0,0.8,0.7,1.5,1.5,1.5s1.5-0.7,1.5-1.5
			V18c0-1.5,0.4-3.1,1-4.4C39.9,12.9,40.3,12.1,40.6,11.4z"/>
		<line id="XMLID_13612_" class="st3" x1="27.5" y1="35.5" x2="27.5" y2="37.9"/>
		<line id="XMLID_13611_" class="st3" x1="35.5" y1="20" x2="35.5" y2="21.8"/>
	</g>
</g>
</svg>
